<svg xmlns="http://www.w3.org/2000/svg" width="805" height="600"><rect width="805" height="600" x="0" y="0" fill="#FFFFFF" id="backgorund"/><g id="viz"><clipPath id="serieClipPath"><rect x="-30" y="-15" width="805" height="600"/></clipPath><g transform="translate(0,0)"><g transform="translate(30,15)" clip-path="url(#serieClipPath)"><g id="axis"><g transform="translate(0,563)" fill="none" font-size="10" font-family="sans-serif" text-anchor="middle"><path class="domain" stroke="currentColor" d="M0,6V0H730V6"/><g class="tick" opacity="1" transform="translate(0,0)"><line stroke="currentColor" y2="6"/><text fill="currentColor" y="9" dy="0.71em">Mar 13</text></g><g class="tick" opacity="1" transform="translate(44.24242424242424,0)"><line stroke="currentColor" y2="6"/><text fill="currentColor" y="9" dy="0.71em">Tue 15</text></g><g class="tick" opacity="1" transform="translate(88.48484848484848,0)"><line stroke="currentColor" y2="6"/><text fill="currentColor" y="9" dy="0.71em">Thu 17</text></g><g class="tick" opacity="1" transform="translate(132.72727272727272,0)"><line stroke="currentColor" y2="6"/><text fill="currentColor" y="9" dy="0.71em">Sat 19</text></g><g class="tick" opacity="1" transform="translate(176.96969696969697,0)"><line stroke="currentColor" y2="6"/><text fill="currentColor" y="9" dy="0.71em">Mon 21</text></g><g class="tick" opacity="1" transform="translate(221.21212121212122,0)"><line stroke="currentColor" y2="6"/><text fill="currentColor" y="9" dy="0.71em">Wed 23</text></g><g class="tick" opacity="1" transform="translate(265.45454545454544,0)"><line stroke="currentColor" y2="6"/><text fill="currentColor" y="9" dy="0.71em">Fri 25</text></g><g class="tick" opacity="1" transform="translate(309.6969696969697,0)"><line stroke="currentColor" y2="6"/><text fill="currentColor" y="9" dy="0.71em">Mar 27</text></g><g class="tick" opacity="1" transform="translate(353.93939393939394,0)"><line stroke="currentColor" y2="6"/><text fill="currentColor" y="9" dy="0.71em">Tue 29</text></g><g class="tick" opacity="1" transform="translate(398.18181818181813,0)"><line stroke="currentColor" y2="6"/><text fill="currentColor" y="9" dy="0.71em">Thu 31</text></g><g class="tick" opacity="1" transform="translate(420.3030303030303,0)"><line stroke="currentColor" y2="6"/><text fill="currentColor" y="9" dy="0.71em">April</text></g><g class="tick" opacity="1" transform="translate(464.54545454545456,0)"><line stroke="currentColor" y2="6"/><text fill="currentColor" y="9" dy="0.71em">Apr 03</text></g><g class="tick" opacity="1" transform="translate(508.7878787878788,0)"><line stroke="currentColor" y2="6"/><text fill="currentColor" y="9" dy="0.71em">Tue 05</text></g><g class="tick" opacity="1" transform="translate(553.030303030303,0)"><line stroke="currentColor" y2="6"/><text fill="currentColor" y="9" dy="0.71em">Thu 07</text></g><g class="tick" opacity="1" transform="translate(597.2727272727274,0)"><line stroke="currentColor" y2="6"/><text fill="currentColor" y="9" dy="0.71em">Sat 09</text></g><g class="tick" opacity="1" transform="translate(641.5151515151515,0)"><line stroke="currentColor" y2="6"/><text fill="currentColor" y="9" dy="0.71em">Mon 11</text></g><g class="tick" opacity="1" transform="translate(685.7575757575758,0)"><line stroke="currentColor" y2="6"/><text fill="currentColor" y="9" dy="0.71em">Wed 13</text></g><g class="tick" opacity="1" transform="translate(730,0)"><line stroke="currentColor" y2="6"/><text fill="currentColor" y="9" dy="0.71em">Fri 15</text></g><text x="730" dy="-5" text-anchor="end" style="font-family: Arial, sans-serif; font-size: 12px; fill: rgb(123, 123, 123); font-weight: bold;">日期</text></g><g transform="translate(0,0)" fill="none" font-size="10" font-family="sans-serif" text-anchor="end"><path class="domain" stroke="currentColor" d="M0,563V0"/><g class="tick" opacity="1" transform="translate(0,563)"><line stroke="currentColor" x2="-6"/><text fill="currentColor" x="-9" dy="0.32em">555</text></g><g class="tick" opacity="1" transform="translate(0,500.4444444444444)"><line stroke="currentColor" x2="-6"/><text fill="currentColor" x="-9" dy="0.32em">560</text></g><g class="tick" opacity="1" transform="translate(0,437.8888888888889)"><line stroke="currentColor" x2="-6"/><text fill="currentColor" x="-9" dy="0.32em">565</text></g><g class="tick" opacity="1" transform="translate(0,375.33333333333337)"><line stroke="currentColor" x2="-6"/><text fill="currentColor" x="-9" dy="0.32em">570</text></g><g class="tick" opacity="1" transform="translate(0,312.77777777777777)"><line stroke="currentColor" x2="-6"/><text fill="currentColor" x="-9" dy="0.32em">575</text></g><g class="tick" opacity="1" transform="translate(0,250.2222222222222)"><line stroke="currentColor" x2="-6"/><text fill="currentColor" x="-9" dy="0.32em">580</text></g><g class="tick" opacity="1" transform="translate(0,187.66666666666669)"><line stroke="currentColor" x2="-6"/><text fill="currentColor" x="-9" dy="0.32em">585</text></g><g class="tick" opacity="1" transform="translate(0,125.1111111111111)"><line stroke="currentColor" x2="-6"/><text fill="currentColor" x="-9" dy="0.32em">590</text></g><g class="tick" opacity="1" transform="translate(0,62.555555555555586)"><line stroke="currentColor" x2="-6"/><text fill="currentColor" x="-9" dy="0.32em">595</text></g><g class="tick" opacity="1" transform="translate(0,0)"><line stroke="currentColor" x2="-6"/><text fill="currentColor" x="-9" dy="0.32em">600</text></g><text x="4" text-anchor="start" dominant-baseline="hanging" style="font-family: Arial, sans-serif; font-size: 12px; fill: rgb(123, 123, 123); font-weight: bold;">收盤</text></g></g><g id="viz"><g><path d="M22.12121212121212,350.31111111111113C33.18181818181818,350.31111111111113,33.18181818181818,525.4666666666667,44.24242424242424,525.4666666666667C55.3030303030303,525.4666666666667,55.3030303030303,525.4666666666667,66.36363636363636,525.4666666666667C77.42424242424242,525.4666666666667,77.42424242424242,225.20000000000002,88.48484848484848,225.20000000000002C99.54545454545455,225.20000000000002,99.54545454545455,237.71111111111114,110.60606060606061,237.71111111111114C143.78787878787878,237.71111111111114,143.78787878787878,175.15555555555557,176.96969696969697,175.15555555555557C188.030303030303,175.15555555555557,188.030303030303,212.6888888888889,199.09090909090907,212.6888888888889C210.15151515151513,212.6888888888889,210.15151515151513,125.1111111111111,221.21212121212122,125.1111111111111C232.27272727272725,125.1111111111111,232.27272727272725,112.59999999999998,243.33333333333331,112.59999999999998C254.39393939393938,112.59999999999998,254.39393939393938,25.022222222222197,265.45454545454544,25.022222222222197C298.6363636363636,25.022222222222197,298.6363636363636,200.17777777777775,331.8181818181818,200.17777777777775C342.8787878787879,200.17777777777775,342.8787878787879,137.62222222222223,353.93939393939394,137.62222222222223C365,137.62222222222223,365,0,376.06060606060606,0C387.1212121212121,0,387.1212121212121,37.533333333333324,398.18181818181813,37.533333333333324C409.24242424242425,37.533333333333324,409.24242424242425,137.62222222222223,420.3030303030303,137.62222222222223C475.6060606060606,137.62222222222223,475.6060606060606,275.24444444444447,530.9090909090909,275.24444444444447C541.969696969697,275.24444444444447,541.969696969697,425.3777777777778,553.030303030303,425.3777777777778C564.090909090909,425.3777777777778,564.090909090909,412.8666666666667,575.1515151515151,412.8666666666667C608.3333333333333,412.8666666666667,608.3333333333333,525.4666666666667,641.5151515151515,525.4666666666667C652.5757575757575,525.4666666666667,652.5757575757575,537.9777777777778,663.6363636363636,537.9777777777778C674.6969696969697,537.9777777777778,674.6969696969697,337.8,685.7575757575758,337.8C696.8181818181818,337.8,696.8181818181818,337.8,707.8787878787879,337.8" stroke="#1f77b4" fill="none"/><text font-family="sans-serif" font-size="10" class="labels" x="376.06060606060606" y="0" dx="0" dy="-4" text-anchor="middle"/></g></g></g><text y="4" x="4" style="font-family: Arial, sans-serif; font-size: 12px; fill: black; font-weight: bold; dominant-baseline: hanging;"/></g><g id="grid"><rect x="0" y="0" width="805" height="600" fill="none" stroke="#ccc"/></g></g></svg>